<svg width="480" height="698" viewBox="0 0 480 698" fill="none" xmlns="http://www.w3.org/2000/svg">
<path fill-rule="evenodd" clip-rule="evenodd" d="M258.511 4.49488C327.861 18.7467 365.091 91.6863 407.889 148.085C438.966 189.036 447.941 238.714 471.085 284.618C500.323 342.611 561.409 387.065 561.122 452.011C560.799 524.725 526.669 599.154 469.492 644.078C411.491 689.65 330.004 707.932 258.511 689.775C192.574 673.029 159.237 603.749 113.261 553.606C77.8089 514.94 40.0852 479.728 21.087 430.831C1.16158 379.547 -2.11401 325.534 3.37855 270.79C10.2704 202.099 8.93685 125.763 56.6964 75.9134C107.302 23.0936 186.859 -10.23 258.511 4.49488Z" stroke="#9F492D" stroke-width="2"/>
</svg>
