<svg width="1440" height="902" viewBox="0 0 1440 902" fill="none" xmlns="http://www.w3.org/2000/svg">
<path d="M-0.00012207 0H1440V557H-0.00012207V0Z" fill="#31432D"/>
<path fill-rule="evenodd" clip-rule="evenodd" d="M252.186 708.456C194.363 726.647 135.692 700.094 75.1485 697.108C13.6767 694.076 -55.0585 727.005 -104.864 690.847C-154.894 654.525 -159.806 582.41 -167.359 521.048C-174.06 466.603 -166.474 412.644 -145.335 362.025C-124.589 312.35 -90.9984 270.998 -48.9137 237.428C-2.45757 200.371 47.7348 158.752 107.13 160.641C167.036 162.547 220.036 202.281 259.668 247.244C295.407 287.791 290.402 347.213 314.308 395.688C347.786 463.573 441.688 512.192 426.942 586.433C412.754 657.867 321.658 686.599 252.186 708.456Z" fill="#9F492D"/>
<path fill-rule="evenodd" clip-rule="evenodd" d="M119.716 465.816C175.878 509.424 249.225 513.939 252.385 584.973C255.396 652.665 175.128 681.385 126.525 728.598C76.7931 776.909 61.7341 846.901 -6.86082 836.806C-75.2219 826.747 -127.711 774.066 -160.197 713.081C-190.911 655.423 -189.909 589.932 -171.803 527.163C-150.882 454.632 -125.31 372.866 -54.5108 346.678C18.6872 319.603 58.072 417.952 119.716 465.816Z" stroke="white" stroke-width="2"/>
</svg>
