<svg width="483" height="576" viewBox="0 0 483 576" fill="none" xmlns="http://www.w3.org/2000/svg">
<path d="M34.4788 413.099C26.8866 411.066 21.6752 410.118 18.7258 410.236C17.9745 410.266 17.2648 410.367 16.6624 410.597C16.0565 410.828 15.3991 411.255 15.0683 412.026C14.7389 412.793 14.8807 413.558 15.1185 414.142C15.3559 414.725 15.751 415.293 16.2105 415.832C18.0129 417.947 21.8502 420.797 27.2022 424.184C32.6117 427.607 39.7302 431.678 48.2503 436.226C82.3258 454.414 139.1 480.39 199.519 503.441C259.918 526.483 324.082 546.65 372.902 553.155C397.279 556.404 418.042 556.278 432.631 551.245C439.953 548.719 445.807 544.926 449.746 539.621C453.696 534.301 455.619 527.596 455.313 519.444C454.19 489.514 441.286 450.874 424.425 409.221C415.984 388.367 406.528 366.705 397.019 344.945L396.59 343.963C387.22 322.521 377.812 300.993 369.269 280.022C351.907 237.401 338.195 197.258 335.609 165C334.318 148.884 335.816 134.864 340.921 123.525C346.004 112.234 354.71 103.496 368.074 97.9692C375.37 94.9518 380.79 92.0531 384.51 89.2713C388.187 86.5222 390.438 83.7121 390.923 80.8061C391.431 77.7596 389.933 75.129 387.375 72.9901C384.836 70.8677 381.062 69.0451 376.417 67.4829C357.851 61.2387 323.263 58.4887 287.914 60.0805C252.569 61.6722 216.065 67.6209 193.727 79.0236C182.578 84.7143 174.615 91.9396 172.427 100.985C170.221 110.105 174.021 120.456 184.908 132.028C195.099 142.859 204.386 152.481 212.769 161.166C224.785 173.614 234.944 184.139 243.247 193.548C257.335 209.514 265.808 221.983 268.791 234.753C271.757 247.449 269.348 260.693 261.045 278.329C252.728 295.996 238.593 317.874 218.343 347.78C213.491 354.946 209.032 361.597 204.899 367.761C193.173 385.25 184.073 398.824 176.065 409.143C165.241 423.092 156.613 430.819 146.512 434.196C136.393 437.58 124.528 436.691 106.984 432.696C96.3661 430.278 83.8111 426.761 68.444 422.457C58.4039 419.645 47.1635 416.497 34.4788 413.099Z" stroke="#31432D" stroke-width="3"/>
</svg>
