<svg width="260" height="716" viewBox="0 0 260 716" fill="none" xmlns="http://www.w3.org/2000/svg">
<path fill-rule="evenodd" clip-rule="evenodd" d="M235.672 497.659C223.9 567.781 181.189 627.816 120.143 664.272C61.9676 699.014 -7.68207 701.986 -72.2937 681.573C-138.407 660.687 -200.863 620.576 -224.493 555.394C-248.043 490.433 -226.541 419.243 -188.245 361.729C-152.038 307.352 -93.8983 277.188 -30.0475 263.373C43.7329 247.409 127.85 231.164 184.471 281.087C243.011 332.702 248.594 420.691 235.672 497.659Z" fill="#9F492D"/>
<path fill-rule="evenodd" clip-rule="evenodd" d="M76.2977 404.5C35.7888 462.936 35.244 536.42 -35.515 543.414C-102.946 550.079 -135.962 471.48 -185.732 425.5C-236.66 378.451 -307.363 367.197 -300.991 298.156C-294.64 229.352 -244.872 174.092 -185.732 138.358C-129.818 104.574 -64.3686 102.035 -0.712662 116.722C72.8425 133.692 155.871 154.809 185.846 224.089C216.838 295.717 120.761 340.359 76.2977 404.5Z" fill="#31432D"/>
</svg>
