<svg width="1440" height="716" viewBox="0 0 1440 716" fill="none" xmlns="http://www.w3.org/2000/svg">
<path fill-rule="evenodd" clip-rule="evenodd" d="M235.672 497.659C223.9 567.781 181.189 627.816 120.143 664.272C61.9676 699.014 -7.68207 701.986 -72.2937 681.573C-138.407 660.687 -200.863 620.576 -224.493 555.394C-248.043 490.433 -226.541 419.243 -188.245 361.729C-152.038 307.352 -93.8983 277.188 -30.0475 263.373C43.7329 247.409 127.85 231.164 184.471 281.087C243.011 332.702 248.594 420.691 235.672 497.659Z" fill="#9F492D"/>
<path fill-rule="evenodd" clip-rule="evenodd" d="M76.2977 404.5C35.7888 462.936 35.244 536.42 -35.515 543.414C-102.946 550.079 -135.962 471.48 -185.732 425.5C-236.66 378.451 -307.363 367.197 -300.991 298.156C-294.64 229.352 -244.872 174.092 -185.732 138.358C-129.818 104.574 -64.3686 102.035 -0.712662 116.722C72.8425 133.692 155.871 154.809 185.846 224.089C216.838 295.717 120.761 340.359 76.2977 404.5Z" fill="#31432D"/>
<path d="M991.479 535.099C983.887 533.066 978.675 532.118 975.726 532.236C974.974 532.266 974.265 532.367 973.662 532.597C973.056 532.828 972.399 533.255 972.068 534.026C971.739 534.793 971.881 535.558 972.119 536.142C972.356 536.725 972.751 537.293 973.21 537.832C975.013 539.947 978.85 542.797 984.202 546.184C989.612 549.607 996.73 553.678 1005.25 558.226C1039.33 576.414 1096.1 602.39 1156.52 625.441C1216.92 648.483 1281.08 668.65 1329.9 675.155C1354.28 678.404 1375.04 678.278 1389.63 673.245C1396.95 670.719 1402.81 666.926 1406.75 661.621C1410.7 656.301 1412.62 649.596 1412.31 641.444C1411.19 611.514 1398.29 572.874 1381.43 531.221C1372.98 510.367 1363.53 488.705 1354.02 466.945L1353.59 465.963C1344.22 444.521 1334.81 422.993 1326.27 402.022C1308.91 359.401 1295.19 319.258 1292.61 287C1291.32 270.884 1292.82 256.864 1297.92 245.525C1303 234.234 1311.71 225.496 1325.07 219.969C1332.37 216.952 1337.79 214.053 1341.51 211.271C1345.19 208.522 1347.44 205.712 1347.92 202.806C1348.43 199.76 1346.93 197.129 1344.37 194.99C1341.84 192.868 1338.06 191.045 1333.42 189.483C1314.85 183.239 1280.26 180.489 1244.91 182.081C1209.57 183.672 1173.06 189.621 1150.73 201.024C1139.58 206.714 1131.62 213.94 1129.43 222.985C1127.22 232.105 1131.02 242.456 1141.91 254.028C1152.1 264.859 1161.39 274.481 1169.77 283.166C1181.78 295.614 1191.94 306.139 1200.25 315.548C1214.34 331.514 1222.81 343.983 1225.79 356.753C1228.76 369.449 1226.35 382.693 1218.05 400.329C1209.73 417.996 1195.59 439.874 1175.34 469.78C1170.49 476.946 1166.03 483.597 1161.9 489.761C1150.17 507.25 1141.07 520.824 1133.07 531.143C1122.24 545.092 1113.61 552.819 1103.51 556.196C1093.39 559.58 1081.53 558.691 1063.98 554.696C1053.37 552.278 1040.81 548.761 1025.44 544.457C1015.4 541.645 1004.16 538.497 991.479 535.099Z" stroke="#31432D" stroke-width="3"/>
</svg>
